<?xml version="1.0" encoding="utf-8"?>
<!-- Generator: Adobe Illustrator 16.0.3, SVG Export Plug-In . SVG Version: 6.00 Build 0)  -->
<!DOCTYPE svg PUBLIC "-//W3C//DTD SVG 1.1//EN" "http://www.w3.org/Graphics/SVG/1.1/DTD/svg11.dtd">
<svg version="1.1" id="Capa_1" xmlns="http://www.w3.org/2000/svg" xmlns:xlink="http://www.w3.org/1999/xlink" x="0px" y="0px"
	 width="64px" height="64px" viewBox="0 0 64 64" enable-background="new 0 0 64 64" xml:space="preserve">
<path fill="none" stroke="#000000" stroke-width="0.5" stroke-linecap="round" stroke-linejoin="round" d="M31.9,61.2
	c0.8-0.2,0.9-0.7,0.9-1.3c0-4.1,0-8.2,0-12.3c0-0.9,0.4-1.3,1.2-1.3c1,0,1.2,0.2,1.2,1.2c0,0.9,0.1,1.7,0.2,2.6
	c0,0.3,0.1,0.8,0.5,0.6c0.2-0.1,0.5-0.5,0.5-0.7c0.1-0.8,0-1.6,0-2.4c0-0.3,0.1-0.6,0.2-0.8c0.4-0.7,1.1-0.5,1.7-0.4
	c0.6,0.1,0.4,0.6,0.5,1c0,0.3,0,0.7,0,1.1c0,0.9,0.2,1.8,0.8,2.5c0.7,0.9,1.5,1.8,2.3,2.6c1.1,1.1,2.2,2,3.3,3.1
	c0.3,0.3,0.6,0.9,0.4,1.1c-0.6,1,0,1.8,0.5,2.4c0.9,1.2,2.1,1.3,3.3,0.5c1.1-0.7,1.4-2.5,0.6-3.5c-0.6-0.9-1.4-1.4-2.6-1.2
	c-0.6,0.1-1.2-0.1-1.7-0.6c-1.3-1.4-2.5-2.8-4-4.1c-1.2-1.1-1.8-2.4-1.6-4.1c0.1-0.6,0.3-0.9,0.8-1c0.7-0.1,1.3-0.2,2-0.3
	c0.4-0.1,0.9-0.1,0.8-0.7c-0.1-0.5-0.4-0.7-1-0.7c-6,0-12,0-18.1,0c-1.2,0-2.4,0-3.6,0c-0.2,0-0.5,0-0.7-0.2
	c-1.1-0.7-1.5-1.6-1.5-2.9c0.1-6.4,0-12.9,0-19.3c0-0.6,0-1.2,0-1.8c0-0.5-0.3-0.6-0.7-0.6c-0.4,0-0.7,0.1-0.7,0.6
	c0,0.4,0,0.9-0.1,1.3c-0.1,1.2-0.4,1.6-1.2,1.6c-2,0-4,0-6.1,0c-0.4,0-0.9-0.1-1.1-0.4c-0.7-1.1-1.7-1.3-2.9-1.2
	c-1.5,0.2-2.5,2.4-1.6,3.7c1,1.5,3.3,1.6,4.5,0.1c0.3-0.4,0.9-0.8,1.3-0.8c1.9-0.1,3.9-0.1,5.8,0c0.6,0,1.2,0.7,1.2,1.3
	c0,0.6-0.4,1-1.2,1c-0.7,0-1.3,0-2,0c-0.3,0-0.6,0.1-0.9,0.3c-0.2,0.1-0.4,0.4-0.4,0.6c0,0.2,0.3,0.4,0.5,0.5
	c0.9,0.1,1.8,0.2,2.7,0.3c1,0.1,1.4,0.6,1,1.6c-0.2,0.7-0.8,0.6-1.3,0.6c-3.9,0-7.8,0-11.7,0c-0.6,0-1.1,0.2-1.7,0.4
	c-0.1,0-0.2,0.5-0.1,0.5c0.3,0.2,0.6,0.4,0.9,0.4c0.6,0.1,1.1,0,1.7,0c3.7,0,7.3,0,11,0c0.9,0,1.2,0.3,1.2,1.1c0,1-0.2,1.2-1.2,1.2
	c-0.8,0-1.5,0-2.2,0c-0.5,0-0.9,0-0.9,0.7c0,0.6,0.4,0.7,0.9,0.7c0.9,0,1.7,0,2.5,0c0.8,0,0.9,0.4,0.9,1.1c0,0.9-0.2,1.3-0.9,1.3
	c-0.6,0-1.3,0.1-1.9,0c-1-0.1-1.7,0.5-2.3,1c-1,0.9-1.8,1.8-2.8,2.8c-0.6,0.6-1.1,1.3-1.7,1.8c-0.6,0.4-1.3,1.1-1.8,1
	c-0.6-0.1-1.1,0.1-1.6,0.2c-0.7,0.1-1.9,1.5-1.9,2.3c0,1.2,1.6,2.6,2.9,2.6c1.6,0,2.8-1.8,2.6-3.3c0-0.4,0.1-0.8,0.3-1.1
	c1.2-1.3,2.6-2.5,3.7-3.8c1.2-1.4,2.5-2.1,4.4-1.9c0.1,0,0.2,0,0.2,0c0.3,0.2,0.8,0.4,0.9,0.7c0.2,0.6,0.3,1.3,0.3,1.9
	c0.1,1.1,0.6,1.9,1.3,2.7c1.1,1.1,2.6,1.1,3.9,1.3c1,0.2,1.3,0.4,1.3,1.3c0,1.8,0,3.5,0,5.3c0,0.5-0.2,1.1-0.5,1.4
	c-0.4,0.3-0.6,0.7-0.9,1.1c-0.6,0.8-0.5,1.6-0.2,2.3c0.4,0.8,1,1.5,2,1.6c2.1,0.1,3-1.6,2.5-3.5c-0.1-0.4-0.4-0.9-0.7-1.1
	c-0.6-0.3-0.9-0.9-0.9-1.5c-0.1-2-0.1-4,0-5.9c0-0.7,0.5-0.9,1.5-0.9c0.7,0,0.9,0.4,0.9,1c0,0.7,0,1.4,0,2.1c0,0.3,0.1,0.7,0.2,0.9
	c0.1,0.2,0.4,0.3,0.6,0.4c0.1,0,0.4-0.2,0.4-0.4c0.1-0.5,0.1-0.9,0.1-1.4c0-0.5-0.1-1,0-1.5c0.1-0.6,0.6-1.3,1.3-1.1
	c0.9,0.2,1,0.2,1,1.3c0,3.9,0,7.9,0,11.8C31.5,60,31.7,60.6,31.9,61.2z"/>
<path fill="none" stroke="#000000" stroke-width="0.5" stroke-linecap="round" stroke-linejoin="round" d="M19,4.3
	c-0.1-0.2-0.2-0.4-0.3-0.6c-0.6-1.6-2.6-2.6-4.1-1c-1.1,1.1-0.8,3.5,0.6,3.9c0.6,0.2,1.2,0.2,1.8,0.4c0.3,0.1,0.7,0.1,1,0.3
	c0.6,0.5,1.2,1,1.7,1.5c1.2,1.1,2.4,2.3,3.5,3.5c0.8,0.9,1.2,1.9,1.1,3.2c-0.1,1-0.5,1.5-1.6,1.5c-0.5,0-1,0-1.5,0
	c-0.4,0-0.7,0.2-0.6,0.6c0.1,0.3,0.3,0.6,0.6,0.7c0.2,0.1,0.5,0,0.7,0c6.8,0,13.7,0,20.5,0c1.5,0,3.1,1.4,3.1,3.1
	c-0.1,5.6-0.1,11.2-0.1,16.8c0,1.4,0,2.7,0,4.1c0,0.5,0.2,0.8,0.7,0.8c0.5,0,0.7-0.3,0.7-0.8c0-0.4,0-0.9,0-1.3
	c0-0.9,0.4-1.3,1.3-1.3c1.8,0,3.7,0,5.5,0c0.7,0,1.2,0.2,1.7,0.8c1.1,1.4,3.2,1.3,4.1-0.1c0.8-1.2,0.6-2.5-0.5-3.4
	c-0.9-0.8-2.3-0.7-3.2,0.1c-0.5,0.4-1.1,1.1-1.6,1.1c-2.1,0.1-4.1,0.1-6.2,0c-0.6,0-1.1-0.6-1.1-1.1c0-0.6,0.5-1.2,1.1-1.2
	c0.9,0,1.8,0,2.7,0c0.5,0,0.8-0.2,0.8-0.8c0-0.6-0.4-0.7-0.8-0.7c-0.9,0-1.8,0-2.7,0c-0.2,0-0.6-0.1-0.7-0.3
	c-0.2-0.4-0.4-0.9-0.3-1.3c0.1-0.5,0.6-0.7,1.2-0.7c4.1,0,8.1,0,12.2,0c0.6,0,1.1-0.1,1.3-0.9c-0.6-0.1-1.2-0.4-1.7-0.4
	c-3.7,0-7.5,0-11.2,0c-0.3,0-0.6,0-0.9,0c-0.5-0.1-1-0.7-1-1.2c0-0.7,0.5-0.8,1-0.9c0.9-0.1,1.8-0.2,2.7-0.3c0.3,0,0.5-0.3,0.8-0.5
	c-0.2-0.3-0.4-0.6-0.6-0.7c-0.2-0.1-0.5-0.1-0.7-0.1c-0.7,0-1.5,0-2.2,0c-0.9-0.1-1.2-0.8-0.8-1.6c0.3-0.7,0.8-0.8,1.4-0.8
	c0.6,0,1.3,0,1.9,0c0.4-0.1,0.9-0.2,1.2-0.5c0.8-0.7,1.6-1.5,2.4-2.2c1.3-1.2,2.6-2.5,4-3.7c0.1-0.1,0.4-0.2,0.6-0.1
	c0.7,0.3,1.8,0.1,2.3-0.4c1.1-1.2,1.3-2.7-0.1-4c-0.6-0.6-2.4-0.6-3.1,0.1c-0.7,0.7-1.1,1.4-1,2.4c0.1,0.6,0,1.1-0.5,1.6
	c-1.2,1.1-2.2,2.2-3.3,3.3c-1.3,1.3-2.6,2.6-4.7,2.1c0,0-0.1,0-0.1,0c-1,0-1.2-0.3-1.3-1.3c0-0.7,0.1-1.4-0.1-2
	c-0.6-1.5-2-3.3-4.3-3c-0.2,0-0.4,0-0.7,0c-0.9,0-1.4-0.5-1.4-1.4c0-1.5,0.1-3,0-4.5c-0.1-1.2,0.2-2.2,1.2-3.1
	c0.9-0.8,0.9-2.1,0.3-3c-0.7-1-1.4-1.2-2.8-1c-1.1,0.2-1.4,1.1-1.8,1.9c-0.3,0.8,0.2,1.4,0.7,2c0.4,0.6,1.2,0.9,1.1,1.8
	c0,2,0,4,0,5.9c0,0.9-0.4,1.3-1.1,1.3c-0.8,0-1.2-0.5-1.2-1.3c0-0.8,0-1.7,0-2.5c0-0.3-0.3-0.5-0.5-0.8c-0.2,0.2-0.5,0.4-0.7,0.6
	c-0.1,0.2-0.1,0.4-0.1,0.7c0,0.7,0,1.5,0,2.2c0,0.8-0.8,1.4-1.6,1.1c-0.7-0.3-0.8-0.9-0.8-1.6c0-3.9,0-7.8,0-11.7
	c0-0.3,0.1-0.6,0-0.8c-0.1-0.2-0.3-0.4-0.5-0.5c-0.1,0-0.4,0.2-0.5,0.4c-0.1,0.3-0.2,0.7-0.2,1c0,1.8,0,3.7,0,5.5c0,2.2,0,4.4,0,6.6
	c0,0.8-0.4,1.2-1.1,1.3c-0.8,0-1-0.4-1.1-1.1C29.2,14.9,29.2,14,29,13c0-0.2-0.3-0.6-0.5-0.7c-0.2,0-0.5,0.2-0.7,0.5
	c-0.1,0.2-0.1,0.5-0.2,0.7c0,0.8,0,1.7-0.1,2.5c0,0.3-0.4,0.7-0.7,0.8c-0.4,0.2-1.1,0.2-1.3-0.4c-0.2-0.6-0.3-1.2-0.4-1.8
	c-0.1-0.8,0.2-1.8-0.5-2.5c-1.7-1.8-3.4-3.5-5-5.2C18.7,5.8,18.4,5.4,19,4.3z"/>
<path fill="none" stroke="#000000" stroke-width="0.5" stroke-linecap="round" stroke-linejoin="round" d="M23.1,34.3
	c0.1,0,0.1,0,0.2,0c-0.3,1.2,0.3,2.1,1,3c0.3,0.4,0.7,0.8,0.9,1.2c0.4,1,0.7,1.9,1.8,2.5c1.7,0.8,2.3,1,3.9,0
	c0.4-0.2,0.8-0.5,1.2-0.5c0.4,0,0.7,0.3,1.1,0.5c0.7,0.4,1.3,0.8,2.1,0.7c0.4-0.1,0.9-0.3,1.3-0.4c1-0.3,1.7-1,2.2-1.9
	c0.3-0.6,0.6-1.2,1.1-1.7c1.6-1.5,1.7-3.8,0.5-5.2c-0.1-0.2-0.2-0.5-0.1-0.7c0.1-0.4,0.3-0.7,0.5-1c0.9-1.8,0.1-3.8-1.4-4.7
	c-0.9-0.6-1.7-1.1-1.5-2.4c0-0.1,0-0.3-0.1-0.4c-0.8-1.2-2-1.6-3.2-1.9c-0.1,0-0.2,0-0.4,0.1c-0.4,0.2-0.9,0.5-1.4,0.7
	c-0.4,0.1-1,0.1-1.4,0c-1-0.4-1.8-0.9-2.9-0.4c-1,0.4-2.3,1.3-2.3,2.4c0,1.1-0.6,1.4-1.3,1.9c-0.6,0.5-1.4,1.1-1.5,1.8
	c-0.3,1.1-0.4,2.4,0.3,3.5c0.1,0.2,0.1,0.5,0,0.7C23.6,32.8,23.4,33.5,23.1,34.3z"/>
<path fill="none" stroke="#000000" stroke-width="0.5" stroke-linecap="round" stroke-linejoin="round" d="M31.9,61.2
	c-0.1-0.6-0.4-1.1-0.4-1.7c0-3.9,0-7.9,0-11.8c0-1.1-0.1-1.1-1-1.3c-0.8-0.1-1.2,0.5-1.3,1.1c-0.1,0.5,0,1,0,1.5
	c0,0.5,0,0.9-0.1,1.4c0,0.2-0.3,0.4-0.4,0.4c-0.2,0-0.5-0.2-0.6-0.4c-0.2-0.3-0.2-0.6-0.2-0.9c0-0.7,0-1.4,0-2.1c0-0.6-0.2-1-0.9-1
	c-0.9,0-1.4,0.2-1.5,0.9c0,2-0.1,4,0,5.9c0,0.5,0.3,1.1,0.9,1.5c0.3,0.2,0.6,0.7,0.7,1.1c0.5,1.9-0.5,3.6-2.5,3.5
	c-1-0.1-1.7-0.7-2-1.6c-0.3-0.7-0.3-1.5,0.2-2.3c0.3-0.4,0.6-0.7,0.9-1.1c0.3-0.3,0.5-0.9,0.5-1.4c0.1-1.8,0-3.5,0-5.3
	c0-1-0.4-1.2-1.3-1.3c-1.4-0.2-2.8-0.2-3.9-1.3c-0.7-0.7-1.3-1.6-1.3-2.7c0-0.6-0.1-1.3-0.3-1.9c-0.1-0.3-0.6-0.5-0.9-0.7
	c0,0-0.1,0-0.2,0c-1.8-0.2-3.2,0.4-4.4,1.9c-1.1,1.4-2.5,2.5-3.7,3.8c-0.2,0.2-0.4,0.7-0.3,1.1c0.2,1.5-0.9,3.3-2.6,3.3
	c-1.3,0-3-1.3-2.9-2.6c0-0.7,1.2-2.1,1.9-2.3c0.5-0.1,1-0.2,1.6-0.2c0.6,0.1,1.3-0.6,1.8-1c0.6-0.5,1.2-1.2,1.7-1.8
	c0.9-0.9,1.8-1.9,2.8-2.8c0.6-0.6,1.3-1.1,2.3-1c0.6,0.1,1.3,0,2,0c0.7,0,0.9-0.4,0.9-1.3c0-0.6-0.1-1.1-0.9-1.1c-0.8,0-1.7,0-2.5,0
	c-0.5,0-0.9-0.1-0.9-0.7c0-0.7,0.5-0.7,0.9-0.7c0.8,0,1.5,0,2.2,0c1,0,1.2-0.2,1.2-1.2c0-0.9-0.3-1.1-1.2-1.1c-3.7,0-7.3,0-11,0
	c-0.6,0-1.2,0-1.7,0c-0.3,0-0.6-0.2-0.9-0.4c-0.1,0,0-0.5,0.1-0.5c0.5-0.2,1.1-0.4,1.7-0.4c3.9,0,7.8,0,11.7,0
	c0.5,0,1.1,0.1,1.3-0.6c0.3-1,0-1.5-1-1.6c-0.9-0.1-1.8-0.2-2.7-0.3c-0.2,0-0.5-0.3-0.5-0.5c0-0.2,0.2-0.5,0.4-0.6
	c0.3-0.2,0.6-0.2,0.9-0.3c0.7,0,1.3,0,2,0c0.8,0,1.2-0.4,1.2-1c0-0.6-0.6-1.3-1.2-1.3c-2,0-3.9-0.1-5.8,0c-0.5,0-1,0.4-1.3,0.8
	c-1.2,1.4-3.4,1.4-4.5-0.1c-0.9-1.2,0.2-3.5,1.6-3.7c1.2-0.1,2.2,0.1,2.9,1.2c0.2,0.3,0.7,0.4,1.1,0.4c2,0,4.1,0,6.1,0
	c0.8,0,1.1-0.4,1.2-1.6c0-0.4,0.1-0.9,0.1-1.3c0-0.5,0.3-0.6,0.7-0.6c0.4,0,0.7,0.2,0.7,0.6c0,0.6,0,1.2,0,1.8c0,6.4,0,12.9,0,19.3
	c0,1.3,0.4,2.3,1.5,2.9c0.2,0.1,0.5,0.2,0.7,0.2c1.2,0,2.4,0,3.6,0c6,0,12,0,18.1,0c0.6,0,0.9,0.2,1,0.7c0.1,0.6-0.4,0.6-0.8,0.7
	c-0.7,0.1-1.3,0.2-2,0.3c-0.5,0.1-0.8,0.4-0.8,1c-0.1,1.7,0.4,2.9,1.6,4c1.4,1.3,2.7,2.7,4,4.1c0.5,0.5,1,0.7,1.7,0.6
	c1.1-0.2,1.9,0.3,2.6,1.2c0.8,1,0.4,2.8-0.6,3.5c-1.3,0.8-2.5,0.7-3.3-0.5c-0.5-0.6-1.1-1.4-0.5-2.4c0.1-0.2-0.1-0.9-0.4-1.1
	c-1.1-1.1-2.2-2-3.2-3.1c-0.8-0.8-1.6-1.7-2.3-2.6c-0.6-0.7-0.8-1.6-0.8-2.5c0-0.4,0-0.7,0-1.1c0-0.4,0.1-0.9-0.5-1
	c-0.6-0.1-1.3-0.3-1.7,0.4c-0.1,0.2-0.2,0.5-0.2,0.8c0,0.8,0,1.6,0,2.4c0,0.3-0.3,0.6-0.5,0.7c-0.5,0.2-0.5-0.3-0.5-0.6
	c-0.1-0.8-0.2-1.7-0.2-2.6c-0.1-1-0.2-1.2-1.2-1.2c-0.9,0-1.2,0.3-1.2,1.3c0,4.1,0,8.2,0,12.3C32.8,60.5,32.7,60.9,31.9,61.2z"/>
<path fill="none" stroke="#000000" stroke-width="0.5" stroke-linecap="round" stroke-linejoin="round" d="M49.2,58.6
	c0-0.6-0.6-1.2-1-1.2c-0.5,0-1,0.6-1,1.2c0,0.6,0.4,1.1,1,1.1C48.7,59.8,49.2,59.2,49.2,58.6z"/>
<path fill="none" stroke="#000000" stroke-width="0.5" stroke-linecap="round" stroke-linejoin="round" d="M23.8,56.7
	c0,0.5,0.5,1.1,0.9,1.1c0.5,0,1-0.6,1-1.1c0-0.6-0.5-1.1-1-1.1C24.3,55.6,23.8,56.1,23.8,56.7z"/>
<path fill="none" stroke="#000000" stroke-width="0.5" stroke-linecap="round" stroke-linejoin="round" d="M7.9,24.1
	c0.1-0.6-0.1-1.1-0.8-1c-0.6,0-1.1,0.5-1.1,1.1c0,0.5,0.5,0.9,1,1C7.7,25.1,8,24.8,7.9,24.1z"/>
<path fill="none" stroke="#000000" stroke-width="0.5" stroke-linecap="round" stroke-linejoin="round" d="M5.2,46.4
	c-0.7,0-1,0.3-1,1c0,0.6,0.4,1,1.1,1.1c0.7,0,0.9-0.4,0.9-1C6.1,46.8,5.8,46.4,5.2,46.4z"/>
<path fill="none" stroke="#000000" stroke-width="0.5" stroke-linecap="round" stroke-linejoin="round" d="M19,4.3
	c-0.6,1.1-0.3,1.5,0.8,2.7c1.7,1.7,3.4,3.5,5,5.2c0.7,0.7,0.4,1.6,0.5,2.5c0.1,0.6,0.2,1.2,0.4,1.8c0.2,0.6,0.8,0.6,1.3,0.4
	c0.3-0.1,0.6-0.5,0.7-0.8c0.1-0.8,0-1.7,0.1-2.5c0-0.2,0-0.5,0.2-0.7c0.2-0.2,0.5-0.5,0.7-0.5c0.2,0,0.4,0.4,0.5,0.7
	c0.1,0.9,0.2,1.9,0.3,2.8c0.1,0.7,0.3,1.1,1.1,1.1c0.6,0,1.1-0.5,1.1-1.3c0-2.2,0-4.4,0-6.6c0-1.8,0-3.7,0-5.5c0-0.3,0.1-0.7,0.2-1
	c0.1-0.2,0.4-0.4,0.5-0.4c0.2,0,0.4,0.3,0.5,0.5c0.1,0.2,0,0.6,0,0.8c0,3.9,0,7.8,0,11.7c0,0.7,0.2,1.4,0.8,1.6
	c0.7,0.3,1.5-0.2,1.6-1.1c0-0.7,0-1.5,0-2.2c0-0.2,0-0.5,0.1-0.7c0.2-0.2,0.4-0.4,0.7-0.6c0.2,0.3,0.5,0.5,0.5,0.8
	c0.1,0.8,0,1.7,0,2.5c0,0.9,0.5,1.3,1.2,1.3c0.7,0,1.1-0.4,1.1-1.3c0-2,0-4,0-5.9c0-0.9-0.7-1.2-1.1-1.8c-0.4-0.6-1-1.3-0.7-2
	c0.3-0.8,0.6-1.7,1.8-1.9c1.5-0.2,2.1-0.1,2.8,1c0.7,1,0.6,2.3-0.3,3c-1,0.8-1.3,1.8-1.2,3.1c0.1,1.5,0,3,0,4.5
	c0,0.9,0.5,1.4,1.4,1.4c0.2,0,0.5,0,0.7,0c2.4-0.3,3.7,1.5,4.3,3c0.2,0.6,0.1,1.3,0.1,2c0,1,0.3,1.2,1.3,1.3c0,0,0.1,0,0.1,0
	c2.1,0.4,3.4-0.8,4.7-2.1c1.1-1.1,2.2-2.3,3.3-3.3c0.5-0.5,0.6-1,0.5-1.6c-0.1-1,0.3-1.7,1-2.4c0.7-0.7,2.4-0.7,3.1-0.1
	c1.4,1.3,1.3,2.8,0.1,4c-0.5,0.5-1.6,0.7-2.3,0.4c-0.2-0.1-0.4,0-0.6,0.1c-1.3,1.2-2.7,2.5-4,3.7c-0.8,0.7-1.6,1.5-2.4,2.2
	c-0.3,0.3-0.8,0.4-1.2,0.5c-0.6,0.1-1.2,0.1-1.9,0c-0.7,0-1.1,0.1-1.4,0.8C46.7,26.2,47,27,47.8,27c0.7,0.1,1.4,0,2.2,0
	c0.3,0,0.5,0,0.7,0.1c0.3,0.2,0.4,0.5,0.6,0.7c-0.3,0.2-0.5,0.5-0.8,0.5c-0.9,0.1-1.8,0.2-2.7,0.3c-0.5,0-1,0.2-1,0.9
	c0,0.6,0.5,1.2,1,1.2c0.3,0,0.6,0,0.9,0c3.7,0,7.4,0,11.2,0c0.6,0,1.2,0.3,1.8,0.4c-0.2,0.9-0.7,0.9-1.3,0.9c-4.1,0-8.2,0-12.2,0
	c-0.6,0-1,0.2-1.2,0.7c-0.1,0.4,0.1,0.9,0.3,1.3c0.1,0.2,0.4,0.3,0.7,0.3c0.9,0,1.8,0,2.7,0c0.4,0,0.8,0.1,0.8,0.7
	c0,0.6-0.3,0.8-0.8,0.8c-0.9,0-1.8,0-2.7,0c-0.6,0-1.1,0.6-1.1,1.2c0,0.6,0.5,1.1,1.1,1.1c2.1,0,4.2,0.1,6.2,0
	c0.6,0,1.1-0.7,1.6-1.1c1-0.8,2.3-0.9,3.2-0.1c1.1,0.9,1.3,2.2,0.5,3.4c-0.9,1.4-3.1,1.5-4.2,0.1c-0.5-0.6-1-0.8-1.7-0.8
	c-1.8,0-3.7,0-5.5,0c-0.9,0-1.3,0.4-1.3,1.3c0,0.4,0,0.9,0,1.3c0,0.5-0.2,0.8-0.7,0.8c-0.5,0-0.7-0.3-0.7-0.8c0-1.4,0-2.7,0-4.1
	c0-5.6-0.1-11.2,0.1-16.8c0-1.7-1.6-3.1-3.1-3.1c-6.8,0-13.7,0-20.5,0c-0.3,0-0.6,0.1-0.7,0c-0.3-0.2-0.5-0.5-0.6-0.7
	c-0.1-0.4,0.2-0.6,0.6-0.6c0.5,0,1,0,1.5,0c1,0,1.5-0.4,1.6-1.5c0.1-1.2-0.3-2.3-1.1-3.2c-1.1-1.2-2.3-2.3-3.5-3.5
	c-0.5-0.5-1.1-1.1-1.7-1.5c-0.3-0.2-0.7-0.2-1-0.3c-0.6-0.1-1.2-0.2-1.8-0.4c-1.4-0.4-1.7-2.7-0.6-3.9c1.6-1.6,3.6-0.6,4.1,1
	C18.8,3.9,18.9,4.1,19,4.3z"/>
<path fill="none" stroke="#000000" stroke-width="0.5" stroke-linecap="round" stroke-linejoin="round" d="M16.4,5.5
	c0.6,0,1-0.4,1-1.2c0-0.6-0.6-1.2-1.1-1.2c-0.5,0-1,0.6-1,1.2C15.4,5.1,15.8,5.5,16.4,5.5z"/>
<path fill="none" stroke="#000000" stroke-width="0.5" stroke-linecap="round" stroke-linejoin="round" d="M57.3,40.3
	c0.5-0.5,1.3-0.7,1.1-1.5c-0.1-0.4-0.6-0.8-1-0.8c-0.4,0-1,0.4-1.1,0.8C56,39.5,56.9,39.7,57.3,40.3z"/>
<path fill="none" stroke="#000000" stroke-width="0.5" stroke-linecap="round" stroke-linejoin="round" d="M57.9,15.9
	c0.5,0.3,1,0.7,1.5,0.7c0.3,0,0.8-0.6,0.9-1c0-0.3-0.4-0.9-0.7-1.1C58.7,14.2,58.4,15.1,57.9,15.9z"/>
<path fill="none" stroke="#000000" stroke-width="0.5" stroke-linecap="round" stroke-linejoin="round" d="M40.7,6.3
	c0-0.5-0.5-1.1-0.9-1.1c-0.6,0-1.1,0.5-1,1.1c0,0.6,0.5,1.1,1,1.1C40.2,7.4,40.7,6.8,40.7,6.3z"/>
<path fill="none" stroke="#000000" stroke-width="0.5" stroke-linecap="round" stroke-linejoin="round" d="M23.1,34.3
	c0.2-0.7,0.4-1.5,0.6-2.3c0.1-0.2,0.1-0.5,0-0.7c-0.7-1.1-0.6-2.4-0.3-3.5c0.2-0.7,0.9-1.3,1.5-1.8c0.7-0.5,1.3-0.9,1.3-1.9
	c0-1.1,1.3-2,2.3-2.4c1.1-0.5,2,0.1,2.9,0.4c0.4,0.2,1,0.1,1.4,0c0.5-0.1,0.9-0.4,1.4-0.7c0.1-0.1,0.2-0.1,0.4-0.1
	c1.3,0.3,2.4,0.7,3.2,1.9c0.1,0.1,0.1,0.3,0.1,0.4c-0.2,1.2,0.6,1.8,1.5,2.4c1.5,0.9,2.3,3,1.4,4.7c-0.2,0.3-0.4,0.7-0.5,1
	c-0.1,0.2,0,0.5,0.1,0.7c1.1,1.4,1,3.7-0.5,5.2c-0.5,0.4-0.8,1.1-1.1,1.7c-0.5,0.9-1.1,1.7-2.2,1.9c-0.4,0.1-0.9,0.3-1.3,0.4
	c-0.8,0.1-1.4-0.3-2.1-0.7c-0.4-0.2-0.7-0.5-1.1-0.5c-0.4,0-0.8,0.3-1.2,0.5c-1.6,1-2.3,0.8-3.9,0c-1.1-0.6-1.4-1.5-1.8-2.5
	c-0.2-0.5-0.6-0.8-0.9-1.2c-0.7-0.8-1.2-1.8-1-3C23.3,34.3,23.2,34.3,23.1,34.3z"/>
<path fill="none" stroke="#000000" stroke-width="0.5" stroke-linecap="round" stroke-linejoin="round" d="M31.8,27.7
	c0.1,0,0.2-0.1,0.3-0.1c0.2,0.3,0.4,0.5,0.6,0.8c0.4,1,0.7,1.1,1.6,0.7c0.3-0.1,0.7-0.2,0.9-0.1c0.3,0.1,0.5,0.5,0.7,0.8
	c-0.2,0.2-0.4,0.4-0.7,0.5c-0.5,0.3-1.3,0.4-1.6,0.8c-0.4,0.6-0.7,1.4-0.8,2.2c-0.1,1.3-0.1,2.6,0,3.9c0.1,0.7,0.2,1.5,0.6,2.1
	c0.8,1.2,2.2,1.3,3.4,0.5c0.6-0.4,0.8-1.5,0.7-2.1c-0.2-0.8-0.8-1.1-1.3-1.5c-0.4-0.4-0.4-0.7-0.1-1.1c0.1-0.1,0.6-0.1,0.8,0
	c0.5,0.2,0.9,0.6,1.4,0.9c0.3,0.2,0.7,0.2,1,0.2c0.2,0,0.4-0.4,0.4-0.7c0.3-1.1-0.3-1.8-1-2.5c-0.6-0.6-0.6-1,0.1-1.6
	c1.5-1.3,1.4-2.8-0.3-3.9c-0.1,0-0.1-0.1-0.2-0.2c-0.6-0.6-1.4-0.7-2.2-0.4c-0.7,0.3-1.2,0-1.6-0.6c0.4-0.2,0.7-0.5,1-0.6
	c1-0.3,1.3-1.2,0.6-2c-0.8-0.9-2.5-0.6-3,0.4c-0.1,0.2-0.2,0.4-0.3,0.6c-0.4,0.7-1,0.7-1.4-0.1c-0.7-1.6-0.9-1.4-2.4-1.3
	c-1,0-1.6,1.1-1.2,2c0.4,0.9,0.2,1.2-0.7,1.5c-1.9,0.6-2.6,1.3-2.5,2.9c0.1,0.7,0.4,0.9,1,0.8c0.5,0,0.9-0.1,1.4-0.1
	c0.5,0,0.7,0.5,0.3,0.9c-0.2,0.2-0.5,0.4-0.7,0.5c-1.8,0.7-2.3,2.2-1.8,3.9c0.1,0.5,0.9,0.8,1.2,0.4c0.6-0.7,1-0.3,1.3,0.2
	c-0.1,0.4-0.2,0.8-0.4,1.1c-0.4,0.6-0.4,1.2,0.1,1.8c0.4,0.4,0.9,0.8,1.5,1.1c0.9,0.5,2.7-0.4,2.8-1.5c0.1-1,0.1-1.9,0-2.9
	c0-0.4-0.5-0.8-0.8-1.2c-0.3-0.4-0.7-0.7-1.1-1.1c0-0.1,0.1-0.2,0.1-0.2c0.3,0,0.6-0.1,0.8-0.1c0.6,0.1,0.9-0.2,1-0.8
	c0-1,0-1.9,0.1-2.9C31.5,28.8,31.7,28.3,31.8,27.7z"/>
<path fill="none" stroke="#000000" stroke-width="0.5" stroke-linecap="round" stroke-linejoin="round" d="M48.1,57.4
	c-0.5,0-1,0.6-1,1.2c0,0.6,0.4,1.1,1,1.1c0.5,0,1-0.6,1-1.2C49.1,58.1,48.6,57.4,48.1,57.4z"/>
<path fill="none" stroke="#000000" stroke-width="0.5" stroke-linecap="round" stroke-linejoin="round" d="M24.7,57.8
	c0.5,0,1-0.6,1-1.1c0-0.6-0.5-1.1-1-1.1c-0.5,0-0.9,0.5-0.9,1C23.8,57.2,24.2,57.8,24.7,57.8z"/>
<path fill="none" stroke="#000000" stroke-width="0.5" stroke-linecap="round" stroke-linejoin="round" d="M7.1,23.1
	c-0.6,0-1.1,0.5-1.1,1.1c0,0.5,0.5,0.9,1,1c0.7,0,1-0.3,0.9-1C8,23.5,7.9,23,7.1,23.1z"/>
<path fill="none" stroke="#000000" stroke-width="0.5" stroke-linecap="round" stroke-linejoin="round" d="M4.2,47.4
	c0,0.6,0.4,1,1.1,1.1c0.7,0,0.9-0.4,0.9-1c0-0.7-0.3-1-1-1C4.4,46.4,4.1,46.7,4.2,47.4z"/>
<path fill="none" stroke="#000000" stroke-width="0.5" stroke-linecap="round" stroke-linejoin="round" d="M17.4,4.4
	c0-0.6-0.6-1.2-1.1-1.2c-0.5,0-1,0.6-1,1.2c0,0.7,0.4,1.1,1,1.1C17,5.5,17.4,5.1,17.4,4.4z"/>
<path fill="none" stroke="#000000" stroke-width="0.5" stroke-linecap="round" stroke-linejoin="round" d="M58.4,38.8
	c-0.1-0.4-0.6-0.8-1-0.8c-0.4,0-1,0.4-1.1,0.8c-0.3,0.8,0.6,1,1,1.6C57.8,39.8,58.6,39.6,58.4,38.8z"/>
<path fill="none" stroke="#000000" stroke-width="0.5" stroke-linecap="round" stroke-linejoin="round" d="M59.4,16.7
	c0.3,0,0.8-0.6,0.9-1c0-0.3-0.4-0.9-0.7-1.1c-0.9-0.4-1.2,0.5-1.7,1.3C58.5,16.2,59,16.6,59.4,16.7z"/>
<path fill="none" stroke="#000000" stroke-width="0.5" stroke-linecap="round" stroke-linejoin="round" d="M39.8,5.2
	c-0.6,0-1.1,0.5-1,1.1c0,0.6,0.5,1.1,1,1.1c0.5,0,1-0.6,1-1.1C40.7,5.8,40.2,5.2,39.8,5.2z"/>
<path fill="none" stroke="#000000" stroke-width="0.5" stroke-linecap="round" stroke-linejoin="round" d="M32.2,27.6
	c0.2,0.3,0.4,0.5,0.6,0.8c0.4,1,0.7,1.1,1.6,0.7c0.3-0.1,0.7-0.2,0.9-0.1c0.3,0.1,0.5,0.5,0.7,0.8c-0.2,0.2-0.4,0.4-0.7,0.5
	c-0.5,0.3-1.3,0.4-1.6,0.8c-0.4,0.6-0.7,1.4-0.8,2.2c-0.1,1.3-0.1,2.6,0,3.9c0.1,0.7,0.2,1.5,0.6,2.1c0.8,1.2,2.2,1.3,3.4,0.5
	c0.6-0.4,0.8-1.5,0.7-2.1c-0.2-0.8-0.8-1.1-1.3-1.5c-0.4-0.4-0.4-0.7-0.1-1.1c0.1-0.1,0.6-0.1,0.8,0c0.5,0.2,0.9,0.6,1.4,0.9
	c0.3,0.2,0.7,0.2,1,0.2c0.2,0,0.4-0.4,0.4-0.7c0.3-1.1-0.3-1.8-1-2.5c-0.6-0.6-0.6-1,0.1-1.6c1.5-1.3,1.4-2.8-0.3-3.9
	c-0.1,0-0.1-0.1-0.2-0.2c-0.6-0.6-1.4-0.7-2.2-0.4c-0.7,0.3-1.2,0-1.6-0.6c0.4-0.2,0.7-0.5,1-0.6c1-0.3,1.3-1.2,0.6-2
	c-0.8-0.9-2.5-0.6-3,0.4c-0.1,0.2-0.2,0.4-0.3,0.6c-0.4,0.7-1,0.7-1.4-0.1c-0.7-1.6-0.9-1.4-2.4-1.3c-1,0-1.6,1.1-1.2,2
	c0.4,0.9,0.2,1.2-0.7,1.5c-1.9,0.6-2.6,1.3-2.5,2.9c0.1,0.7,0.4,0.9,1,0.8c0.5,0,0.9-0.1,1.4-0.1c0.5,0,0.7,0.5,0.3,0.9
	c-0.2,0.2-0.5,0.4-0.7,0.5c-1.8,0.7-2.3,2.2-1.8,3.9c0.1,0.5,0.9,0.8,1.2,0.4c0.6-0.7,1-0.3,1.3,0.2c-0.1,0.4-0.2,0.8-0.4,1.1
	c-0.4,0.6-0.4,1.2,0.1,1.8c0.4,0.4,0.9,0.8,1.5,1.1c0.9,0.5,2.7-0.4,2.8-1.5c0.1-1,0.1-1.9,0-2.9c0-0.4-0.5-0.8-0.8-1.2
	c-0.3-0.4-0.7-0.7-1.1-1.1c0-0.1,0.1-0.2,0.1-0.2c0.3,0,0.6-0.1,0.8-0.1c0.6,0.1,0.9-0.2,1-0.8c0-1,0-1.9,0.1-2.9
	c0-0.6,0.2-1.2,0.3-1.7C31.9,27.7,32.1,27.6,32.2,27.6z"/>
</svg>
